<?xml version="1.0" standalone="no"?>
<!DOCTYPE svg PUBLIC "-//W3C//DTD SVG 20010904//EN"
 "http://www.w3.org/TR/2001/REC-SVG-20010904/DTD/svg10.dtd">
<svg version="1.0" xmlns="http://www.w3.org/2000/svg"
 width="260.000000pt" height="260.000000pt" viewBox="0 0 260.000000 260.000000"
 preserveAspectRatio="xMidYMid meet">
<metadata>
Created by potrace 1.14, written by Peter Selinger 2001-2017
</metadata>
<g transform="translate(0.000000,260.000000) scale(0.100000,-0.100000)"
fill="#000000" stroke="none">
<path d="M114 2590 c-11 -4 -29 -25 -40 -47 -17 -33 -19 -60 -19 -208 1 -181
11 -256 67 -505 24 -105 31 -160 32 -250 1 -107 -2 -122 -36 -227 -109 -326
-87 -647 59 -881 l34 -53 50 45 c86 78 211 126 364 142 62 6 84 15 85 35 0 13
-128 31 -215 31 -99 -1 -180 -19 -255 -57 -28 -14 -50 -23 -50 -20 0 2 28 19
61 36 111 56 264 73 396 45 l63 -13 20 43 c42 86 139 152 280 191 95 26 485
26 580 0 141 -39 244 -110 281 -193 l18 -41 68 15 c98 20 239 11 332 -21 41
-15 78 -30 84 -36 5 -5 -21 2 -59 15 -92 34 -189 45 -291 33 -98 -11 -135 -23
-127 -42 3 -10 30 -17 79 -21 147 -13 249 -51 356 -133 l67 -51 41 72 c79 138
111 272 111 459 0 148 -20 268 -67 407 -49 143 -50 252 -5 460 66 304 88 497
72 624 -17 135 -50 167 -150 147 -123 -24 -286 -131 -476 -313 -156 -149 -164
-152 -303 -113 -165 46 -461 46 -636 1 -55 -14 -109 -26 -120 -26 -32 0 -72
30 -194 144 -186 174 -320 265 -440 300 -60 18 -86 19 -117 6z m180 -92 c78
-42 209 -167 276 -264 151 -219 113 -362 -137 -517 -124 -76 -148 -76 -188 4
-63 122 -128 447 -129 639 -1 154 5 170 70 170 33 0 64 -10 108 -32z m2183 -5
c48 -114 -50 -680 -139 -805 -28 -41 -59 -36 -164 27 -165 98 -228 180 -228
295 -1 50 6 79 27 124 89 191 319 396 444 396 41 0 45 -2 60 -37z m-1607
-1109 c76 -41 140 -129 169 -232 9 -31 7 -36 -47 -90 -76 -77 -137 -107 -222
-107 -147 1 -279 117 -280 245 0 50 19 87 69 138 87 86 205 104 311 46z m1050
26 c59 -16 128 -67 160 -117 70 -109 19 -236 -123 -310 -42 -22 -66 -27 -122
-28 -88 0 -146 27 -222 103 -50 49 -55 58 -50 88 7 40 47 122 83 170 61 79
180 120 274 94z"/>
<path d="M707 1355 c-75 -26 -119 -92 -119 -175 2 -179 229 -243 332 -94 27
41 36 109 21 156 -21 64 -111 129 -175 128 -12 -1 -38 -7 -59 -15z m173 -95
c37 -37 14 -100 -37 -100 -28 0 -63 33 -63 60 0 11 9 29 20 40 11 11 29 20 40
20 11 0 29 -9 40 -20z"/>
<path d="M1765 1351 c-48 -22 -79 -54 -100 -103 -20 -49 -19 -84 4 -133 48
-106 170 -144 262 -82 123 83 109 257 -26 318 -51 23 -89 23 -140 0z m35 -91
c11 -11 20 -29 20 -40 0 -11 -9 -29 -20 -40 -11 -11 -29 -20 -40 -20 -11 0
-29 9 -40 20 -11 11 -20 29 -20 40 0 11 9 29 20 40 11 11 29 20 40 20 11 0 29
-9 40 -20z"/>
<path d="M1156 644 c-17 -44 94 -194 144 -194 50 0 160 144 145 191 -8 25 -54
25 -105 -1 l-40 -20 -40 20 c-48 24 -95 26 -104 4z"/>
<path d="M515 574 c-88 -19 -198 -72 -255 -122 l-44 -39 29 -37 c36 -47 57
-43 134 25 62 56 188 122 269 140 39 10 52 17 52 31 0 15 -8 18 -57 17 -32 0
-89 -7 -128 -15z"/>
<path d="M1902 574 c2 -10 29 -24 73 -38 96 -30 188 -81 250 -138 71 -64 95
-69 129 -25 14 18 26 38 26 43 0 17 -93 82 -161 113 -113 52 -325 82 -317 45z"/>
<path d="M633 521 c-85 -24 -180 -73 -228 -115 l-40 -36 115 51 c205 91 220
99 220 109 0 5 -1 10 -2 9 -2 0 -31 -8 -65 -18z"/>
<path d="M1900 531 c0 -9 2 -10 193 -97 75 -35 137 -60 137 -56 0 14 -125 92
-187 117 -70 28 -143 46 -143 36z"/>
</g>
</svg>
